<svg width="32" height="32" viewBox="0 0 32 32" fill="none" xmlns="http://www.w3.org/2000/svg">
<path d="M30.3082 7.242C29.3872 4.911 26.7377 1 19.3347 1C15.3007 1 13.3672 3.249 11.3202 5.6295C10.1862 6.949 9.01369 8.313 7.40918 9.3645C1.85968 13 -0.0998152 17.45 1.58468 22.592C3.25818 27.6995 7.15668 31 11.5177 31C13.0817 31 14.6752 30.5875 16.2552 29.7725C20.6412 27.512 23.1727 24.109 25.4067 21.1065C26.4782 19.667 27.4892 18.307 28.5667 17.2965C30.9437 15.069 31.6927 10.746 30.3082 7.242ZM2.50818 22.289C0.956185 17.551 2.73319 13.59 7.94169 10.1775C9.66069 9.0505 10.8792 7.6335 12.0572 6.2635C14.0372 3.961 15.7467 1.972 19.3347 1.972C26.1627 1.972 28.5742 5.4975 29.4047 7.599C29.4562 7.7275 29.4987 7.86 29.5427 7.992C29.6582 9.97 29.4707 12.4785 28.5147 13.8985C27.9742 14.702 27.0397 15.877 26.5197 16.5495C27.8302 13.5865 27.1917 11.847 27.1917 11.847C25.7002 18.795 21.3647 19.226 18.5442 24.5545C18.5442 24.5545 21.0842 23.0655 22.7182 21.324C22.7182 21.324 20.4487 26.9005 15.0002 27.603C11.0897 28.1065 10.0237 29.1735 9.10668 29.6305C6.18769 28.67 3.72418 26.002 2.50818 22.289Z" fill="#FCC809"/>
<path d="M11.8123 26.194C10.6403 26.4005 9.49178 25.4345 9.61478 26.131C9.73678 26.8285 10.7858 27.2255 11.9578 27.0185C13.1278 26.8135 13.9773 26.0795 13.8548 25.383C13.7308 24.686 12.9818 25.987 11.8123 26.194ZM5.21678 23.398C4.56828 22.2955 4.89128 20.736 4.36828 21.146C3.84628 21.556 3.95028 22.781 4.59878 23.884C5.24828 24.986 6.19628 25.5475 6.71878 25.138C7.24078 24.728 5.86678 24.4995 5.21678 23.398ZM4.75078 18.778C5.38878 18.77 4.37378 17.715 4.40478 16.3985C4.43478 15.08 5.49728 14.001 4.85728 14.009C4.22028 14.015 3.67928 15.088 3.64778 16.407C3.61778 17.7235 4.11178 18.7855 4.75078 18.778ZM16.5463 22.031C15.3303 22.1845 14.1853 21.131 14.2823 21.8585C14.3803 22.579 15.4463 23.0405 16.6618 22.8875C17.8768 22.7335 18.7828 22.0215 18.6838 21.2955C18.5858 20.5725 17.7608 21.876 16.5463 22.031ZM22.7343 11.7315C23.3718 11.7595 24.0128 10.724 24.1648 9.41645C24.3153 8.11195 23.9158 7.03095 23.2753 7.00245C22.6348 6.97495 23.5558 8.07845 23.4048 9.38395C23.2558 10.6895 22.0918 11.7015 22.7343 11.7315ZM15.6088 4.46795C16.3913 3.87695 17.5398 3.99545 17.2243 3.62595C16.9108 3.26095 16.0198 3.44195 15.2338 4.03245C14.4508 4.62345 14.0718 5.39895 14.3873 5.76645C14.7028 6.13295 14.8248 5.05745 15.6088 4.46795ZM11.6033 9.80545C12.8873 9.31245 14.3923 9.91845 14.1083 9.29745C13.8243 8.68195 12.5528 8.57995 11.2638 9.07245C9.97978 9.56395 9.17028 10.4655 9.45578 11.084C9.74078 11.7025 10.3173 10.2975 11.6033 9.80545ZM11.8963 20.275C13.2078 19.1975 13.8258 17.702 13.2763 16.9405C12.7283 16.1755 12.5583 18.293 11.2478 19.371C9.93578 20.45 7.98328 20.083 8.53228 20.8485C9.07828 21.6095 10.5848 21.353 11.8963 20.275ZM20.4638 6.32595C21.4783 5.14695 21.8033 3.69945 21.1883 3.09945C20.5748 2.49645 20.7518 4.43395 19.7383 5.61395C18.7228 6.79545 16.9038 6.77395 17.5193 7.37595C18.1298 7.97695 19.4488 7.50695 20.4638 6.32595ZM20.4063 16.942C19.3178 17.9025 17.6458 17.6515 18.1313 18.2835C18.6173 18.917 19.8928 18.6515 20.9808 17.693C22.0698 16.734 22.5573 15.4425 22.0723 14.81C21.5863 14.177 21.4938 15.9835 20.4063 16.942ZM9.32128 15.569C10.5313 15.328 11.4373 14.5815 11.3458 13.9055C11.2538 13.2285 10.4223 14.525 9.21278 14.7675C8.00328 15.01 6.87178 14.107 6.96378 14.7825C7.05628 15.459 8.11178 15.811 9.32128 15.569ZM25.8493 10.8475C26.4753 11.1295 27.3318 10.418 27.7618 9.25845C28.1918 8.09795 28.0328 6.92945 27.4068 6.64845C26.7798 6.36645 27.4493 7.76345 27.0203 8.92345C26.5898 10.084 25.2238 10.5665 25.8493 10.8475ZM16.7468 13.8275C18.1858 13.37 19.2353 12.4155 19.0873 11.6985C18.9413 10.982 18.0138 12.52 16.5743 12.981C15.1333 13.44 13.7303 12.648 13.8773 13.365C14.0228 14.08 15.3083 14.2875 16.7468 13.8275Z" fill="#FCC809"/>
</svg>
