<svg width="229" height="32" viewBox="0 0 229 32" fill="none" xmlns="http://www.w3.org/2000/svg">
<path d="M18.2408 5.43995L9.28078 14.4H28.8008V17.6H9.28078L18.2408 26.56L16.0008 28.8L3.20078 16L16.0008 3.19995L18.2408 5.43995Z" fill="#FCC809"/>
<circle cx="57" cy="16" r="10" fill="white" fill-opacity="0.5"/>
<path d="M102 16C102 21.5228 97.5228 26 92 26C86.4772 26 82 21.5228 82 16C82 10.4772 86.4772 6 92 6C97.5228 6 102 10.4772 102 16Z" fill="white" fill-opacity="0.5"/>
<path d="M147 16C147 24.2843 140.284 31 132 31C123.716 31 117 24.2843 117 16C117 7.71573 123.716 1 132 1C140.284 1 147 7.71573 147 16Z" fill="#FCC809"/>
<path d="M182 16C182 21.5228 177.523 26 172 26C166.477 26 162 21.5228 162 16C162 10.4772 166.477 6 172 6C177.523 6 182 10.4772 182 16Z" fill="white" fill-opacity="0.5"/>
<path d="M210.759 5.43995L219.719 14.4H200.199V17.6H219.719L210.759 26.56L212.999 28.8L225.799 16L212.999 3.19995L210.759 5.43995Z" fill="#FCC809"/>
</svg>
