<svg width="54" height="54" viewBox="0 0 54 54" fill="none" xmlns="http://www.w3.org/2000/svg">
<rect width="54" height="54" fill="#FCC809"/>
<path d="M37.2857 28.7143H28.7143V37.2857C28.7143 37.7404 28.5337 38.1764 28.2122 38.4979C27.8907 38.8194 27.4547 39 27 39C26.5453 39 26.1093 38.8194 25.7878 38.4979C25.4663 38.1764 25.2857 37.7404 25.2857 37.2857V28.7143H16.7143C16.2596 28.7143 15.8236 28.5337 15.5021 28.2122C15.1806 27.8907 15 27.4547 15 27C15 26.5453 15.1806 26.1093 15.5021 25.7878C15.8236 25.4663 16.2596 25.2857 16.7143 25.2857H25.2857V16.7143C25.2857 16.2596 25.4663 15.8236 25.7878 15.5021C26.1093 15.1806 26.5453 15 27 15C27.4547 15 27.8907 15.1806 28.2122 15.5021C28.5337 15.8236 28.7143 16.2596 28.7143 16.7143V25.2857H37.2857C37.7404 25.2857 38.1764 25.4663 38.4979 25.7878C38.8194 26.1093 39 26.5453 39 27C39 27.4547 38.8194 27.8907 38.4979 28.2122C38.1764 28.5337 37.7404 28.7143 37.2857 28.7143Z" fill="black"/>
</svg>
