<svg width="32" height="32" viewBox="0 0 32 32" fill="none" xmlns="http://www.w3.org/2000/svg">
<path d="M16 14.6665C19.3137 14.6665 22 11.9802 22 8.6665C22 5.3528 19.3137 2.6665 16 2.6665C12.6863 2.6665 10 5.3528 10 8.6665C10 11.9802 12.6863 14.6665 16 14.6665Z" stroke="#FCC809" stroke-width="2" stroke-linejoin="round"/>
<path d="M3 29.3332C3 25.3332 7.66667 18.6665 16 18.6665C16 18.6665 17.8393 18.6665 19.8547 19.3932C21.8293 20.1065 24.3333 20.7658 24.3333 18.6665V5.1665C24.3333 4.50346 24.5967 3.86758 25.0656 3.39874C25.5344 2.9299 26.1703 2.6665 26.8333 2.6665C27.4964 2.6665 28.1323 2.9299 28.6011 3.39874C29.0699 3.86758 29.3333 4.50346 29.3333 5.1665V29.3332" stroke="#FCC809" stroke-width="2"/>
<path d="M1.33398 29.333H30.6673" stroke="#FCC809" stroke-width="2" stroke-linecap="round" stroke-linejoin="round"/>
</svg>
