<svg width="32" height="32" viewBox="0 0 32 32" fill="none" xmlns="http://www.w3.org/2000/svg">
<path d="M16.0005 29.3332C15.2672 29.3332 14.6396 29.0723 14.1179 28.5505C13.5961 28.0287 13.3347 27.4007 13.3339 26.6665H18.6672C18.6672 27.3998 18.4063 28.0278 17.8845 28.5505C17.3627 29.0732 16.7347 29.3341 16.0005 29.3332ZM23.2672 19.4665L9.13385 5.39984C10.045 4.55539 11.0841 3.88873 12.2512 3.39984C13.4183 2.91095 14.6681 2.6665 16.0005 2.6665C18.7783 2.6665 21.1396 3.63895 23.0845 5.58384C25.0294 7.52873 26.0014 9.88962 26.0005 12.6665C26.0005 14.2443 25.7227 15.5945 25.1672 16.7172C24.6116 17.8398 23.9783 18.7563 23.2672 19.4665ZM28.2672 28.2665L26.3672 30.1665L17.5339 21.3332H11.0005C9.46719 20.4221 8.2503 19.1998 7.34985 17.6665C6.44941 16.1332 5.99963 14.4665 6.00052 12.6665C6.00052 12.2221 6.02852 11.7887 6.08452 11.3665C6.14052 10.9443 6.22363 10.5332 6.33385 10.1332L1.86719 5.59984L3.73385 3.73317L28.2672 28.2665ZM21.5339 22.6665V25.3332H10.6672V22.6665H21.5339Z" fill="#FCC809"/>
</svg>
