<svg width="36" height="36" viewBox="0 0 36 36" fill="none" xmlns="http://www.w3.org/2000/svg">
<path d="M15.5615 6.88054V4.55704C15.5615 4.54204 15.5615 4.52854 15.5765 4.51504C15.5881 4.50483 15.6031 4.49946 15.6185 4.50004H17.288V8.28004C15.2793 8.49541 13.3789 9.299 11.825 10.59C10.3626 11.8017 9.28261 13.4113 8.71588 15.2239C8.14915 17.0366 8.11993 18.9747 8.63175 20.8036C9.14358 22.6325 10.1745 24.2739 11.5998 25.5291C13.0251 26.7843 14.7836 27.5995 16.6625 27.876C16.8335 27.906 17.1245 27.9255 17.288 27.933V31.5H15.626C15.5825 31.5 15.554 31.479 15.554 31.4355V29.418C15.554 29.383 15.5375 29.3595 15.5045 29.3475C12.9453 28.7412 10.6701 27.2784 9.05615 25.2018C7.44219 23.1251 6.58636 20.5593 6.63053 17.9295C6.68001 15.372 7.57995 12.9039 9.18825 10.9148C10.7965 8.92564 13.0216 7.52889 15.512 6.94504C15.546 6.93704 15.5625 6.91554 15.5615 6.88054ZM20.4575 29.4255V31.4355C20.4575 31.4785 20.436 31.5 20.393 31.5H18.7085V27.933C20.4205 27.7799 22.0637 27.1864 23.4784 26.2102C24.893 25.234 26.031 23.9083 26.7815 22.362C27.6112 20.5947 27.9006 18.6218 27.6135 16.6906C27.3263 14.7595 26.4755 12.9561 25.1675 11.5065C23.4852 9.6736 21.186 8.52536 18.71 8.28154V4.50004H20.435L20.45 4.50604L20.4575 4.52104V6.85804C20.4575 6.89304 20.474 6.91404 20.507 6.92104C22.1309 7.29213 23.6529 8.01688 24.9646 9.04361C26.2763 10.0703 27.3453 11.3738 28.0955 12.861C29.3998 15.3964 29.7163 18.3257 28.9835 21.081C28.4771 23.0626 27.4436 24.8701 25.9925 26.3115C24.4907 27.8241 22.5916 28.8808 20.5145 29.3595C20.4775 29.3665 20.4585 29.3905 20.4575 29.4315V29.4255Z" fill="#FCC809"/>
<path d="M19.7316 11.235C19.7183 10.9895 19.7745 10.7451 19.8939 10.5302C20.0134 10.3152 20.1911 10.1384 20.4066 10.02C20.4176 10.022 20.4271 10.027 20.4351 10.035L20.4426 10.056C20.4735 10.3031 20.4246 10.5537 20.3032 10.7711C20.1818 10.9885 19.9942 11.1616 19.7676 11.265H19.7526L19.7376 11.253L19.7316 11.235ZM16.2216 10.128C16.3896 10.4378 16.4541 10.7932 16.4055 11.1422C16.3569 11.4912 16.1978 11.8154 15.9516 12.0675C15.9422 12.0698 15.9323 12.069 15.9234 12.0652C15.9145 12.0614 15.907 12.0549 15.9021 12.0465C15.5961 11.3775 15.6816 10.731 16.1571 10.1205C16.1801 10.0915 16.1991 10.0915 16.2141 10.1205L16.2216 10.128ZM19.3476 10.902C19.3761 11.13 19.4676 11.2995 19.5471 11.292C19.6176 11.2785 19.6521 11.079 19.6176 10.866C19.5816 10.632 19.4976 10.461 19.4181 10.476C19.3476 10.491 19.3056 10.6815 19.3476 10.902ZM16.4481 11.5485C16.4772 11.305 16.5758 11.075 16.7322 10.8861C16.8887 10.6972 17.0963 10.5574 17.3301 10.4835C17.3661 10.476 17.3796 10.4835 17.3721 10.5255C17.3021 11.0805 17.0111 11.4355 16.4991 11.5905C16.4935 11.593 16.4873 11.5943 16.4811 11.5943C16.475 11.5943 16.4688 11.593 16.4631 11.5905C16.4572 11.5854 16.4527 11.5789 16.4501 11.5715C16.4474 11.5641 16.4468 11.5562 16.4481 11.5485ZM20.2356 11.058C20.3153 10.9001 20.4405 10.7696 20.5951 10.6836C20.7496 10.5975 20.9264 10.5597 21.1026 10.575C21.1101 10.5771 21.1165 10.5821 21.1204 10.5888C21.1243 10.5955 21.1255 10.6035 21.1236 10.611V10.632C20.9316 10.9665 20.6481 11.13 20.2716 11.1075C20.2356 11.1075 20.2281 11.0865 20.2356 11.058ZM23.2551 11.0505C23.3841 11.6625 23.1846 12.1455 22.6806 12.5085C22.6446 12.5295 22.6161 12.522 22.6086 12.4785C22.4886 11.889 22.7586 11.3925 23.2056 11.037C23.2356 11.01 23.2546 11.015 23.2626 11.052L23.2551 11.0505ZM15.2196 11.208L15.5826 11.556L15.6111 11.6055L15.7236 12.096C15.7274 12.1157 15.7254 12.1361 15.718 12.1547C15.7105 12.1733 15.6979 12.1893 15.6816 12.201C15.6635 12.214 15.6412 12.2199 15.619 12.2174C15.5969 12.2149 15.5764 12.2042 15.5616 12.1875L15.2121 11.8335C15.2028 11.8202 15.1958 11.8056 15.1911 11.79L15.0561 11.307C15.0521 11.2871 15.0539 11.2664 15.0614 11.2475C15.0688 11.2286 15.0816 11.2123 15.0981 11.2005C15.1167 11.189 15.1383 11.1835 15.1601 11.1849C15.1819 11.1862 15.2027 11.1943 15.2196 11.208ZM21.1806 11.5275C20.7756 11.7765 20.1936 11.7975 19.8306 11.4345C19.8096 11.406 19.8096 11.3775 19.8516 11.364C20.063 11.257 20.3 11.2109 20.5361 11.2311C20.7722 11.2512 20.998 11.3367 21.1881 11.478L21.1956 11.499C21.1956 11.505 21.1941 11.51 21.1911 11.514L21.1806 11.5275ZM21.7986 11.463C21.8286 11.406 21.8706 11.406 21.9051 11.463C22.1405 11.7558 22.2775 12.1154 22.2966 12.4905C22.3157 12.8657 22.216 13.2373 22.0116 13.5525C22.0019 13.5588 21.9903 13.5616 21.9788 13.5602C21.9673 13.5588 21.9566 13.5535 21.9486 13.545C21.4956 12.95 21.4481 12.2585 21.8061 11.4705L21.7986 11.463ZM16.0791 12.174C16.5336 11.6055 17.1741 11.4555 17.8836 11.6055C17.9196 11.6135 17.9266 11.6325 17.9046 11.6625C17.4426 12.2465 16.8411 12.4405 16.1001 12.2445C16.0581 12.2385 16.0506 12.21 16.0791 12.174ZM13.6641 12.216C13.6701 12.5085 13.7556 12.75 13.8561 12.75C13.9611 12.75 14.0406 12.5085 14.0331 12.21C14.0331 11.9175 13.9401 11.676 13.8411 11.676C13.7421 11.676 13.6641 11.9175 13.6701 12.216H13.6641ZM17.9406 12.849C17.9196 12.33 18.1686 11.9325 18.5946 11.6625C18.6366 11.6325 18.6651 11.6475 18.6651 11.7045C18.6881 11.944 18.639 12.185 18.524 12.3964C18.4091 12.6078 18.2336 12.78 18.0201 12.891C17.9691 12.921 17.9481 12.906 17.9406 12.849ZM13.2306 12.189C13.3506 12.366 13.4931 12.4725 13.5576 12.4365C13.6206 12.3945 13.5726 12.216 13.4511 12.0315C13.3296 11.8545 13.1871 11.7465 13.1241 11.7825C13.0596 11.826 13.1091 12.003 13.2291 12.1875" fill="#FCC809"/>
<path d="M19.4702 18.9449C20.2232 18.7334 20.8922 18.0869 21.0272 17.3264C21.1397 16.6664 20.7212 16.3319 20.5022 15.7844C20.323 15.3646 20.2426 14.9092 20.267 14.4533C20.2915 13.9975 20.4202 13.5533 20.6432 13.1549C20.7287 13.0139 20.7422 13.0139 20.6927 13.1774C20.3372 14.3489 20.6567 15.4364 21.3182 16.4324C21.3467 16.4669 21.3677 16.4669 21.3962 16.4324L22.1912 15.4934L22.1972 15.4724C22.1972 15.4646 22.1951 15.4568 22.1912 15.4499L22.1852 15.4364C21.9918 15.3033 21.8412 15.117 21.7515 14.9C21.6617 14.6831 21.6368 14.4448 21.6797 14.2139C21.6872 14.1434 21.7022 14.1434 21.7097 14.2139C21.7747 14.6419 21.9637 14.9809 22.2767 15.2309C22.3127 15.2519 22.3412 15.2459 22.3487 15.2084C22.6817 14.4764 22.3487 13.7309 22.5257 13.0064L22.5182 12.9359C22.541 13.4047 22.6052 13.8705 22.7102 14.3279C22.8167 14.8319 22.7462 15.2519 22.4972 15.6629C22.2312 16.1019 21.9162 16.5024 21.5522 16.8644C21.5424 16.8748 21.5348 16.8871 21.5299 16.9005C21.525 16.9139 21.5229 16.9282 21.5237 16.9424V17.4194C21.5237 17.4264 21.5262 17.4314 21.5312 17.4344L21.5462 17.4479L21.5597 17.4539H21.5807C22.1522 17.2154 22.6622 16.8524 23.0732 16.3889C23.2266 16.1818 23.4328 16.0196 23.6702 15.9194C23.9077 15.8191 24.1677 15.7844 24.4232 15.8189C24.4932 15.8329 24.4932 15.8499 24.4232 15.8699L24.2582 15.9269C24.2182 15.9409 24.2092 15.9644 24.2312 15.9974C24.2937 16.0984 24.3337 16.2116 24.3484 16.3294C24.3632 16.4471 24.3524 16.5667 24.3167 16.6799C24.3133 16.691 24.3069 16.7008 24.2981 16.7082C24.2893 16.7157 24.2786 16.7204 24.2672 16.7219C24.2539 16.7261 24.2397 16.7255 24.2268 16.7203C24.214 16.7151 24.2033 16.7056 24.1967 16.6934C24.1278 16.6037 24.0792 16.5001 24.0543 16.3898C24.0295 16.2795 24.0289 16.165 24.0527 16.0544C24.0677 16.0049 24.0527 15.9974 24.0107 16.0184C23.7088 16.1781 23.4559 16.4165 23.2787 16.7084C23.2782 16.7141 23.2794 16.7198 23.282 16.7249C23.2847 16.7299 23.2887 16.7341 23.2937 16.7369H23.3087C23.5547 16.7519 23.7842 16.8229 23.9972 16.9499C24.3602 17.1944 24.7967 17.3069 25.2332 17.2694C25.4312 17.2409 25.4462 17.2694 25.2617 17.3684C25.1495 17.4299 25.0256 17.4668 24.8981 17.4767C24.7706 17.4865 24.6424 17.469 24.5222 17.4254C24.2256 17.3296 23.9342 17.2185 23.6492 17.0924C23.3357 16.9499 23.0582 16.9919 22.7537 17.1419C22.3335 17.3535 21.9294 17.5956 21.5447 17.8664C21.393 17.9764 21.2633 18.1137 21.1622 18.2714C20.8562 18.6899 20.4782 19.0514 20.0462 19.3364C19.7972 19.5149 19.5347 19.6499 19.3637 19.9124C18.4397 21.3479 18.6467 23.4299 18.9737 25.0274C18.9737 25.0424 18.9737 25.0499 18.9887 25.0574C18.9947 25.0634 19.0082 25.0709 19.0157 25.0634C21.6092 24.7514 23.9177 23.2034 24.9842 20.7869C24.9922 20.7709 25.0042 20.7659 25.0202 20.7719C25.0277 20.7719 25.0352 20.7794 25.0277 20.7929C23.7272 26.0084 17.4737 28.0409 13.4597 24.4604C12.3647 23.4752 11.5982 22.1779 11.2637 20.7434H11.2847C12.3512 23.2034 14.7392 24.7934 17.3387 25.0709C17.3882 25.0709 17.4107 25.0559 17.4107 25.0064C17.4737 23.6864 17.5022 22.3634 17.4812 21.0569C17.4812 20.5094 17.4452 20.0054 17.3882 19.5419C17.3696 19.3797 17.2942 19.2293 17.1752 19.1174C16.8307 18.8129 16.5253 18.4668 16.2662 18.0869C16.2589 18.075 16.2485 18.0652 16.2361 18.0589C16.2236 18.0525 16.2096 18.0498 16.1957 18.0509C15.6623 18.1148 15.1513 18.3022 14.7032 18.5984C14.5399 18.7139 14.3504 18.7867 14.1518 18.8103C13.9532 18.8339 13.7519 18.8075 13.5662 18.7334L13.5512 18.7184V18.6974C13.5512 18.6899 13.5512 18.6824 13.5662 18.6764H13.5812C13.7772 18.6877 13.9734 18.6574 14.1569 18.5876C14.3404 18.5178 14.5072 18.4101 14.6462 18.2714C14.6489 18.2666 14.6502 18.261 14.6499 18.2555C14.6496 18.2499 14.6478 18.2445 14.6447 18.2399L14.6327 18.2279L14.6177 18.2219C14.4129 18.144 14.2301 18.0173 14.0852 17.8529C13.8283 17.5817 13.4884 17.4039 13.1192 17.3474C13.0622 17.3324 13.0622 17.3184 13.1192 17.3054C13.9787 17.0564 14.3117 18.2069 15.1712 18.0584C15.4517 18.0075 15.7276 17.9337 15.9962 17.8379C16.0457 17.8169 16.0457 17.7884 16.0112 17.7599C15.2287 17.0725 14.277 16.6065 13.2542 16.4099C12.5642 16.2899 11.9252 15.9119 11.6897 15.2099C11.6477 15.0884 11.6687 15.0809 11.7467 15.1739C12.1742 15.6644 12.7427 15.9194 13.4732 15.9404C13.5242 15.9404 13.5302 15.9254 13.5092 15.8774C13.3471 15.5429 13.2649 15.1752 13.2692 14.8034C13.2797 14.1734 13.0592 13.5629 12.6497 13.0844C12.6137 13.0474 12.6207 13.0354 12.6707 13.0484C13.1252 13.1909 13.3667 13.6109 13.4732 14.0714C13.5452 14.4209 13.6157 14.7689 13.6652 15.1169C13.7657 15.8489 14.1707 16.2179 14.7887 16.5524C15.1187 16.7254 15.4572 16.8814 15.8042 17.0204L15.8162 17.0084L15.8192 16.9934C15.7191 16.4192 15.7577 15.8293 15.9317 15.2729C15.9366 15.2573 15.9378 15.2408 15.9352 15.2247C15.9326 15.2085 15.9262 15.1932 15.9167 15.1799C15.6337 14.7399 15.3497 14.4154 15.0647 14.2064C14.5892 13.8524 14.0357 13.6034 14.0852 12.8999C14.0862 12.8719 14.0912 12.8719 14.1002 12.8999C14.2432 13.2829 14.5102 13.5599 14.9012 13.7309C14.9512 13.7539 14.9752 13.7374 14.9732 13.6814C14.9557 13.4891 14.9798 13.2952 15.0437 13.1129C15.1947 12.7139 15.2137 12.3399 15.1007 11.9909C15.0717 11.9069 15.0857 11.8969 15.1427 11.9609C15.4847 12.3314 15.3137 12.9059 15.2147 13.3469C15.1861 13.4805 15.1859 13.6185 15.2141 13.7521C15.2422 13.8856 15.2981 14.0118 15.3782 14.1224C15.5702 14.3904 15.7902 14.6339 16.0382 14.8529C16.0476 14.857 16.058 14.8585 16.0682 14.8574C16.0779 14.8562 16.0872 14.8526 16.0952 14.8469C16.3352 14.3249 16.4342 13.7489 16.3802 13.1774C16.3592 13.0199 16.3082 12.8714 16.2797 12.7154C16.2737 12.6584 16.2797 12.6584 16.3157 12.7004C16.5837 13.0854 16.7067 13.4884 16.6847 13.9094C16.6577 14.3744 16.5512 14.8289 16.3727 15.2594C16.3756 15.2697 16.3811 15.2789 16.3887 15.2863C16.3964 15.2937 16.4059 15.2989 16.4162 15.3014H16.4432C17.3537 14.9819 17.9927 14.2499 17.8652 13.2194V13.2119H17.9012C18.1142 14.1419 17.8502 14.8619 17.1047 15.3569C16.8698 15.5073 16.6167 15.6272 16.3517 15.7139C16.2797 15.7349 16.2452 15.7844 16.2317 15.8549C16.1981 16.1124 16.1981 16.373 16.2317 16.6304C16.2437 16.7154 16.2887 16.7364 16.3667 16.6934C16.7927 16.4594 17.2472 16.4879 17.7017 16.7864C17.7078 16.7903 17.7129 16.7956 17.7166 16.8019C17.7202 16.8081 17.7223 16.8152 17.7227 16.8224C17.7234 16.8307 17.7218 16.839 17.7181 16.8464C17.7144 16.8538 17.7087 16.8601 17.7017 16.8644C17.3042 17.1134 16.8767 17.1419 16.4162 16.9349C16.3592 16.9129 16.3447 16.9299 16.3727 16.9859C16.5362 17.2979 16.7417 17.5604 16.9982 17.7884C17.6657 18.3704 18.2492 18.8894 18.3557 19.8284C18.3577 19.8694 18.3692 19.8714 18.3902 19.8344C18.5177 19.6064 18.6902 19.4084 18.9092 19.2584C18.9374 19.2379 18.9575 19.2082 18.9662 19.1744L19.1162 18.5414C19.1302 18.5064 19.1157 18.4829 19.0727 18.4709C18.7318 18.4517 18.405 18.3282 18.1367 18.117C17.8684 17.9058 17.6715 17.6173 17.5727 17.2904C17.5382 17.1914 17.5517 17.1914 17.6027 17.2754C17.7536 17.5396 17.9674 17.7623 18.2252 17.9237C18.483 18.0852 18.7767 18.1804 19.0802 18.2009L19.0952 18.1859C19.103 18.1784 19.1078 18.1683 19.1087 18.1574C19.0592 17.8304 18.8672 17.6819 18.6542 17.4674C18.2132 17.0414 18.1277 16.4519 18.3272 15.8549C18.3617 15.7634 18.3692 15.7709 18.3617 15.8549C18.3197 16.3889 18.4547 16.9214 18.8522 17.2904L19.1147 17.5454C19.4702 17.8874 19.5557 18.4349 19.4282 18.9104C19.4282 18.9464 19.4282 18.9599 19.4702 18.9539V18.9449Z" fill="#FCC809"/>
<path d="M19.7823 11.9594L20.2788 12.2519L20.3223 12.3014L20.5488 12.7769C20.5563 12.7935 20.5599 12.8115 20.5594 12.8297C20.5589 12.8479 20.5542 12.8657 20.5458 12.8819C20.5362 12.8977 20.5231 12.911 20.5075 12.9209C20.4918 12.9308 20.4742 12.9369 20.4558 12.9389C20.4348 12.9404 20.4063 12.9404 20.3853 12.9194L19.9593 12.6569C19.9453 12.647 19.9331 12.6348 19.9233 12.6209L19.6323 12.1229C19.6185 12.1011 19.6125 12.0754 19.6152 12.0498C19.6179 12.0242 19.6292 12.0002 19.6473 11.9819C19.6655 11.9636 19.6894 11.9521 19.7151 11.9494C19.7408 11.9466 19.7666 11.9528 19.7883 11.9669L19.7823 11.9594ZM17.5578 12.5354C17.5938 12.7559 17.6853 12.9254 17.7633 12.9119C17.8353 12.8969 17.8773 12.7139 17.8353 12.4859C17.8053 12.2729 17.7153 12.1019 17.6358 12.1094C17.5578 12.1244 17.5218 12.3149 17.5578 12.5354ZM20.9613 12.5144C21.0178 12.5144 21.0719 12.4919 21.1119 12.452C21.1518 12.412 21.1743 12.3579 21.1743 12.3014C21.1743 12.2449 21.1518 12.1907 21.1119 12.1508C21.0719 12.1108 21.0178 12.0884 20.9613 12.0884C20.9048 12.0884 20.8506 12.1108 20.8107 12.1508C20.7707 12.1907 20.7483 12.2449 20.7483 12.3014C20.7483 12.3579 20.7707 12.412 20.8107 12.452C20.8506 12.4919 20.9048 12.5144 20.9613 12.5144ZM18.7803 12.3089L19.2483 12.1874C19.2636 12.1843 19.2796 12.1862 19.2938 12.1926C19.3081 12.1991 19.3199 12.2098 19.3278 12.2234C19.3354 12.2367 19.3388 12.252 19.3375 12.2673C19.3361 12.2826 19.3301 12.2971 19.3203 12.3089L19.0143 12.6344C19.0047 12.6452 18.9922 12.653 18.9783 12.6569L18.5388 12.7619C18.5238 12.7647 18.5083 12.763 18.4944 12.7568C18.4805 12.7506 18.4687 12.7404 18.4608 12.7274C18.4513 12.7133 18.4469 12.6965 18.4483 12.6796C18.4497 12.6627 18.4567 12.6467 18.4683 12.6344L18.7518 12.3299L18.7878 12.3089H18.7803ZM11.6463 12.2444C12.2073 12.5069 12.4848 13.0394 12.4563 13.6649C12.4551 13.6702 12.4526 13.6751 12.4489 13.679C12.4452 13.683 12.4405 13.6859 12.4353 13.6874L12.4203 13.6934H12.3993C11.8668 13.4234 11.5968 12.9614 11.5893 12.2864C11.5893 12.2444 11.6043 12.2294 11.6463 12.2519V12.2444ZM13.6923 12.8414C13.3083 12.9269 12.9318 12.7139 12.7128 12.4004C12.6978 12.3734 12.7048 12.3569 12.7338 12.3509C13.1178 12.2804 13.4433 12.4079 13.7208 12.7559C13.7568 12.7979 13.7418 12.8264 13.6923 12.8414ZM22.9443 13.7654C22.7943 13.2884 22.9653 12.8624 23.2848 12.5144C23.3128 12.4874 23.3343 12.4924 23.3493 12.5294C23.5053 12.9974 23.3913 13.4159 22.9938 13.7789L22.9863 13.7864H22.9683L22.9503 13.7789L22.9443 13.7654ZM23.2713 13.7999C23.5683 13.0549 24.1363 12.6479 24.9753 12.5789C24.9786 12.5773 24.9824 12.5766 24.9861 12.5769C24.9898 12.5772 24.9934 12.5785 24.9964 12.5806C24.9995 12.5827 25.0019 12.5856 25.0035 12.589C25.005 12.5924 25.0056 12.5962 25.0053 12.5999V12.6149C24.8978 12.9781 24.6756 13.2969 24.372 13.5234C24.0684 13.75 23.6996 13.8722 23.3208 13.8719C23.2648 13.8719 23.2493 13.8479 23.2713 13.7999ZM17.0523 13.4729L16.8603 12.8834C16.8538 12.8604 16.8543 12.8359 16.8618 12.8132C16.8693 12.7905 16.8834 12.7705 16.9023 12.7559C16.9225 12.7397 16.9476 12.7309 16.9735 12.7309C16.9994 12.7309 17.0246 12.7397 17.0448 12.7559L17.4498 13.1189C17.4708 13.1324 17.4783 13.1534 17.4858 13.1744L17.6628 13.7504C17.6702 13.7752 17.6694 13.8018 17.6605 13.8261C17.6516 13.8504 17.635 13.8712 17.6133 13.8854C17.5914 13.8995 17.5653 13.9058 17.5394 13.9031C17.5134 13.9003 17.4892 13.8888 17.4708 13.8704L17.0868 13.5239C17.0719 13.5094 17.0601 13.4921 17.0523 13.4729ZM18.0318 13.0259C18.4158 12.7409 18.9708 12.8339 19.3758 13.0964C19.4258 13.1264 19.4258 13.1549 19.3758 13.1819C19.1661 13.3045 18.9235 13.3588 18.6816 13.3373C18.4397 13.3158 18.2105 13.2195 18.0258 13.0619C18.0229 13.0547 18.0229 13.0466 18.0258 13.0394L18.0318 13.0334V13.0259ZM20.9808 12.8699L21.4503 13.1459C21.4605 13.1488 21.4698 13.1543 21.4772 13.1619C21.4845 13.1696 21.4898 13.1791 21.4923 13.1894L21.7338 13.6724C21.7438 13.6932 21.7472 13.7166 21.7434 13.7394C21.7397 13.7623 21.729 13.7834 21.7128 13.7999C21.6962 13.8161 21.6747 13.8264 21.6516 13.8291C21.6285 13.8318 21.6052 13.8268 21.5853 13.8149L21.1593 13.5659C21.1382 13.5577 21.1203 13.543 21.1083 13.5239L20.8323 13.0184C20.8205 12.9967 20.8161 12.9717 20.8199 12.9473C20.8237 12.9229 20.8355 12.9005 20.8533 12.8834C20.8699 12.8671 20.8914 12.8568 20.9145 12.8541C20.9375 12.8514 20.9609 12.8579 20.9808 12.8699ZM11.1978 13.4084L10.8078 13.0529C10.7955 13.0425 10.7858 13.0294 10.7796 13.0146C10.7735 12.9997 10.7709 12.9836 10.7722 12.9676C10.7736 12.9516 10.7787 12.9362 10.7872 12.9225C10.7958 12.9089 10.8074 12.8975 10.8213 12.8894C10.8441 12.8812 10.869 12.8812 10.8918 12.8894L11.3898 12.9749C11.4033 12.9749 11.4243 12.9824 11.4318 12.9959L11.8083 13.3514C11.8246 13.3658 11.8356 13.3853 11.8397 13.4066C11.8438 13.428 11.8408 13.4502 11.831 13.4696C11.8213 13.4891 11.8054 13.5048 11.7859 13.5144C11.7663 13.5239 11.7441 13.5267 11.7228 13.5224L11.2503 13.4384C11.232 13.4317 11.2152 13.4215 11.2008 13.4084M13.4883 13.1879C13.6653 13.1459 13.7943 13.0604 13.7793 12.9959C13.7643 12.9314 13.6083 12.9254 13.4313 12.9674C13.2603 13.0094 13.1253 13.0949 13.1463 13.1594C13.1613 13.2239 13.3173 13.2299 13.4883 13.1879ZM15.9183 13.9559C15.975 13.9559 16.0293 13.9334 16.0694 13.8933C16.1095 13.8532 16.132 13.7988 16.132 13.7421C16.132 13.6854 16.1095 13.6311 16.0694 13.591C16.0293 13.5509 15.975 13.5284 15.9183 13.5284C15.8616 13.5284 15.8072 13.5509 15.7671 13.591C15.7271 13.6311 15.7045 13.6854 15.7045 13.7421C15.7045 13.7988 15.7271 13.8532 15.7671 13.8933C15.8072 13.9334 15.8616 13.9559 15.9183 13.9559ZM12.2523 13.7564C12.3373 13.7964 12.3443 13.8439 12.2733 13.8989C11.8248 14.2679 11.2428 14.2679 10.6953 14.0264C10.6899 14.0231 10.6852 14.0188 10.6816 14.0136C10.678 14.0084 10.6755 14.0026 10.6743 13.9964C10.6741 13.9899 10.6754 13.9834 10.678 13.9775C10.6806 13.9715 10.6844 13.9662 10.6893 13.9619C11.1353 13.5769 11.6563 13.5084 12.2523 13.7564ZM19.2783 13.6424C19.3077 13.8782 19.2626 14.1174 19.1493 14.3263C19.0361 14.5353 18.8604 14.7037 18.6468 14.8079C18.6398 14.8079 18.6348 14.8064 18.6318 14.8034L18.6168 14.7929L18.6108 14.7719C18.5808 14.2889 18.7893 13.9054 19.2363 13.6214C19.2633 13.6064 19.2798 13.6134 19.2858 13.6424H19.2783ZM24.0543 13.8839C24.4518 13.5284 25.0773 13.5569 25.5528 13.7849C25.5908 13.8049 25.5933 13.8284 25.5603 13.8554C25.0773 14.2109 24.5718 14.2454 24.0603 13.9484C24.0273 13.9274 24.0263 13.9059 24.0543 13.8839ZM12.4638 13.9979C12.5138 13.9879 12.5328 14.0069 12.5208 14.0549C12.4143 14.4104 12.1788 14.6234 11.8098 14.7299C11.7738 14.7299 11.7603 14.7299 11.7678 14.6864C11.8538 14.3194 12.0858 14.0909 12.4638 13.9979ZM18.2328 14.4659C18.2688 14.6789 18.3528 14.8484 18.4248 14.8349C18.4953 14.8274 18.5313 14.6429 18.4953 14.4299C18.4668 14.2169 18.3828 14.0459 18.3033 14.0609C18.2328 14.0669 18.2043 14.2514 18.2328 14.4659ZM23.2713 14.0534C24.0513 13.9679 24.6708 14.3864 25.0818 15.0689C25.1048 15.1109 25.0953 15.1349 25.0533 15.1409C24.6779 15.1872 24.2977 15.1095 23.9705 14.9197C23.6434 14.7299 23.3873 14.4383 23.2413 14.0894C23.2413 14.0834 23.2428 14.0779 23.2458 14.0729L23.2563 14.0609H23.2713V14.0534ZM19.0923 14.6009C19.2423 14.2874 19.5693 14.1524 19.8963 14.1449H19.9098L19.9248 14.1599C19.9271 14.1643 19.9284 14.1691 19.9284 14.1741C19.9284 14.1791 19.9271 14.184 19.9248 14.1884C19.7673 14.5079 19.4973 14.6639 19.1283 14.6564C19.0848 14.6564 19.0788 14.6354 19.0923 14.6009ZM14.0403 14.1809C14.2592 14.2825 14.4419 14.4486 14.5638 14.6569C14.6858 14.8652 14.7413 15.1057 14.7228 15.3464L14.7078 15.3614L14.6868 15.3674H14.6658C14.2198 15.1314 13.9898 14.7429 13.9758 14.2019C13.9755 14.1942 13.9782 14.1866 13.9833 14.1809C13.9863 14.1782 13.9899 14.1761 13.9938 14.1748C13.9976 14.1735 14.0017 14.173 14.0058 14.1734L14.0403 14.1809ZM19.3203 15.2114C19.6683 15.2399 19.9518 15.1619 19.9593 15.0464C19.9668 14.9264 19.6968 14.8139 19.3563 14.7854C19.0068 14.7554 18.7233 14.8349 18.7158 14.9489C18.7083 15.0689 18.9783 15.1889 19.3203 15.2114ZM21.2673 15.5234C21.312 15.5224 21.3561 15.5126 21.397 15.4946C21.438 15.4766 21.475 15.4507 21.5059 15.4184C21.5368 15.386 21.5611 15.348 21.5773 15.3063C21.5935 15.2646 21.6013 15.2201 21.6003 15.1754C21.6003 15.0851 21.5644 14.9985 21.5006 14.9346C21.4367 14.8707 21.3501 14.8349 21.2598 14.8349C21.1709 14.8376 21.0865 14.8745 21.0241 14.9379C20.9618 15.0014 20.9264 15.0864 20.9253 15.1754C20.9253 15.3674 21.0753 15.5234 21.2598 15.5234H21.2673ZM23.5188 15.1829L23.6388 15.0044C23.6434 14.9981 23.6496 14.9932 23.6567 14.99C23.6638 14.9869 23.6716 14.9856 23.6793 14.9864C23.6868 14.9859 23.6943 14.9873 23.7011 14.9904C23.7079 14.9936 23.7138 14.9984 23.7183 15.0044L23.7258 15.0344L23.7318 15.2894V15.3179L23.5683 15.5309C23.5617 15.5386 23.5527 15.5439 23.5428 15.5459C23.5331 15.5493 23.5225 15.5493 23.5128 15.5459C23.5039 15.5433 23.4961 15.5381 23.4903 15.5309C23.4852 15.5223 23.4831 15.5123 23.4843 15.5024L23.5053 15.2039C23.5053 15.2039 23.5038 15.1889 23.5188 15.1829ZM23.1873 15.0404C23.2931 15.1218 23.3725 15.2329 23.4152 15.3594C23.4579 15.486 23.4621 15.6224 23.4273 15.7514C23.425 15.7652 23.4186 15.778 23.4089 15.7882C23.3993 15.7984 23.3868 15.8055 23.3731 15.8085C23.3594 15.8116 23.3451 15.8105 23.3321 15.8054C23.319 15.8003 23.3078 15.7914 23.2998 15.7799C23.218 15.6802 23.1612 15.5625 23.1341 15.4365C23.1069 15.3105 23.1103 15.1798 23.1438 15.0554C23.1438 15.0254 23.1648 15.0194 23.1873 15.0404ZM23.8833 15.7229C24.0468 15.5804 24.1458 15.4169 24.0963 15.3539C24.0468 15.2969 23.8683 15.3689 23.7063 15.5099C23.5413 15.6524 23.4423 15.8159 23.4918 15.8729C23.5428 15.9284 23.7198 15.8654 23.8818 15.7229M25.1463 15.4679C25.2168 16.0004 24.9468 16.4474 24.4998 16.6964C24.4638 16.7174 24.4503 16.7039 24.4428 16.6754C24.3858 16.1504 24.6558 15.7304 25.1028 15.4454C25.11 15.4425 25.1181 15.4425 25.1253 15.4454L25.1403 15.4529V15.4679H25.1463ZM15.0288 16.1924C15.1227 16.1912 15.2124 16.1534 15.2789 16.087C15.3453 16.0205 15.3831 15.9308 15.3843 15.8369C15.3823 15.7439 15.344 15.6554 15.2775 15.5903C15.2111 15.5253 15.1218 15.4889 15.0288 15.4889C14.9347 15.4899 14.8449 15.5282 14.779 15.5954C14.7132 15.6627 14.6768 15.7533 14.6778 15.8474C14.6788 15.9415 14.7171 16.0313 14.7843 16.0971C14.8516 16.1629 14.9422 16.1994 15.0363 16.1984L15.0288 16.1924ZM23.0643 15.8654C23.1708 15.9494 23.2773 15.9854 23.3058 15.9494C23.3358 15.9074 23.2698 15.8084 23.1633 15.7364C23.0583 15.6524 22.9503 15.6164 22.9233 15.6524C22.8933 15.6944 22.9578 15.7934 23.0643 15.8654ZM17.9268 16.6604C17.7161 16.604 17.5251 16.4905 17.3748 16.3325C17.2244 16.1745 17.1206 15.9781 17.0748 15.7649C17.0538 15.7029 17.0753 15.6794 17.1393 15.6944C17.5933 15.8094 17.8773 16.1124 17.9913 16.6034C17.9993 16.6584 17.9758 16.6774 17.9208 16.6604H17.9268ZM18.9438 16.6814C18.9933 16.1984 19.2423 15.9014 19.6758 15.6869H19.6908L19.7058 15.6899L19.7178 15.7019V15.7169C19.7188 15.9379 19.65 16.1536 19.5213 16.3332C19.3925 16.5128 19.2104 16.6473 19.0008 16.7174C18.9573 16.7384 18.9438 16.7174 18.9438 16.6814ZM9.57178 16.0064C9.95048 15.7779 10.3934 15.6791 10.8333 15.7252C11.2732 15.7712 11.6861 15.9594 12.0093 16.2614L12.0138 16.2764V16.2914L12.0063 16.3034L11.9943 16.3124C11.1918 16.7819 10.2753 16.6184 9.56428 16.0574L9.55378 16.0439L9.55078 16.0289C9.55078 16.0219 9.55278 16.0159 9.55678 16.0109L9.57178 16.0004V16.0064ZM18.6378 16.3559C18.6378 16.5614 18.7023 16.7249 18.7728 16.7249C18.8433 16.7249 18.8928 16.5539 18.8928 16.3484C18.8928 16.1414 18.8223 15.9794 18.7518 15.9794C18.6813 15.9794 18.6318 16.1489 18.6318 16.3544L18.6378 16.3559ZM25.4583 16.4264C25.6938 16.2914 25.8483 16.1204 25.8003 16.0424C25.7568 15.9569 25.5303 15.9929 25.3023 16.1279C25.0683 16.2554 24.9123 16.4264 24.9618 16.5044C25.0038 16.5899 25.2318 16.5539 25.4583 16.4264ZM20.2293 16.3619L19.9443 16.6169L19.9098 16.6394L19.4838 16.6679C19.4678 16.6676 19.4524 16.6621 19.4397 16.6524C19.427 16.6427 19.4178 16.6292 19.4133 16.6139V16.5839C19.4165 16.5696 19.4238 16.5566 19.4343 16.5464L19.7178 16.3199L19.7538 16.3049L20.1798 16.2419C20.1943 16.2413 20.2088 16.2449 20.2213 16.2524C20.2338 16.2598 20.2439 16.2708 20.2503 16.2839C20.2563 16.2989 20.2568 16.3129 20.2518 16.3259C20.2479 16.3398 20.2401 16.3523 20.2293 16.3619ZM12.4068 16.5044C12.4278 16.4549 12.4488 16.4549 12.4848 16.4834C12.8748 16.8734 12.8973 17.4989 12.6843 17.9759L12.6723 17.9909L12.6558 17.9969H12.6408L12.6258 17.9894C12.2508 17.5634 12.1728 17.0729 12.4068 16.4969V16.5044ZM12.0303 16.5329C12.0873 16.5029 12.1158 16.5194 12.1158 16.5824C12.1863 17.4989 11.6673 18.2744 10.8708 18.7004C10.8348 18.7234 10.8163 18.7134 10.8153 18.6704C10.7633 18.2301 10.8541 17.7849 11.0741 17.4001C11.2942 17.0153 11.632 16.7113 12.0378 16.5329H12.0303ZM25.8858 16.9739C25.6768 17.0962 25.4354 17.1515 25.1941 17.1325C24.9527 17.1134 24.723 17.0209 24.5358 16.8674C24.532 16.8594 24.5301 16.8507 24.5301 16.8419C24.5301 16.8331 24.532 16.8244 24.5358 16.8164L24.5568 16.7954C24.9968 16.5674 25.4398 16.6054 25.8858 16.9094C25.9203 16.9304 25.9143 16.9514 25.8858 16.9739ZM19.0293 16.8239C19.2282 16.7523 19.4434 16.7389 19.6496 16.7854C19.8558 16.8319 20.0444 16.9363 20.1933 17.0864C20.2233 17.1164 20.2158 17.1374 20.1873 17.1509C19.9895 17.2356 19.7703 17.2565 19.56 17.2108C19.3498 17.1651 19.159 17.055 19.0143 16.8959C18.9793 16.8609 18.9843 16.8369 19.0293 16.8239ZM9.64228 17.6489C9.77863 17.3506 10.0104 17.1061 10.3009 16.954C10.5915 16.802 10.9245 16.7509 11.2473 16.8089C11.2525 16.8118 11.2567 16.8162 11.2594 16.8216C11.262 16.8269 11.2631 16.8329 11.2623 16.8389L11.2563 16.8539C11.1033 17.1362 10.8692 17.3662 10.5841 17.5141C10.2991 17.662 9.97621 17.7209 9.65728 17.6834L9.64228 17.6684V17.6489ZM23.6253 17.4644C23.8173 17.5844 24.0093 17.6339 24.0528 17.5694C24.0948 17.4989 23.9733 17.3429 23.7828 17.2154C23.5908 17.0954 23.4048 17.0444 23.3553 17.1149C23.3208 17.1869 23.4333 17.3369 23.6253 17.4644ZM23.0928 17.3699C22.9088 17.8619 22.5888 18.1484 22.1328 18.2294C22.1058 18.2369 22.0908 18.2294 22.0983 18.1934C22.1347 17.9651 22.2388 17.753 22.3971 17.5845C22.5555 17.416 22.7607 17.2989 22.9863 17.2484C23.1003 17.2139 23.1363 17.2499 23.0928 17.3699ZM23.2773 17.3039C23.6773 17.6189 23.8313 18.0429 23.7393 18.5759C23.7318 18.6404 23.7033 18.6479 23.6538 18.6119C23.4589 18.4624 23.3139 18.2575 23.2378 18.024C23.1618 17.7905 23.1583 17.5394 23.2278 17.3039L23.2428 17.2979C23.2483 17.2956 23.2541 17.2944 23.26 17.2944C23.266 17.2944 23.2718 17.2956 23.2773 17.2979V17.3039ZM20.0028 18.1574C20.0448 18.1571 20.0859 18.1443 20.1207 18.1207C20.1555 18.0972 20.1826 18.0638 20.1985 18.0249C20.2144 17.9859 20.2184 17.9431 20.21 17.9019C20.2016 17.8607 20.1812 17.8229 20.1514 17.7932C20.1215 17.7636 20.0836 17.7435 20.0423 17.7354C20.001 17.7273 19.9583 17.7316 19.9194 17.7477C19.8806 17.7639 19.8474 17.7912 19.8241 17.8262C19.8007 17.8612 19.7883 17.9023 19.7883 17.9444C19.7883 18.0569 19.8888 18.1574 20.0028 18.1574ZM22.7523 18.2144L22.9728 17.8094L22.9953 17.7794C23.0053 17.7727 23.0168 17.7685 23.0289 17.7672C23.0409 17.7659 23.053 17.7675 23.0643 17.7719L23.0928 17.7944C23.1041 17.8058 23.1115 17.8205 23.1138 17.8364L23.1498 18.2639C23.1518 18.2799 23.1493 18.2939 23.1423 18.3059L22.9218 18.7319C22.9153 18.7486 22.9031 18.7624 22.8873 18.7709C22.8718 18.778 22.8543 18.7795 22.8378 18.7754C22.8216 18.7714 22.8073 18.7621 22.797 18.7491C22.7867 18.7361 22.781 18.72 22.7808 18.7034L22.7373 18.2639C22.7373 18.2429 22.7373 18.2279 22.7523 18.2144ZM24.3723 18.2924C24.4288 18.2924 24.4829 18.2699 24.5229 18.23C24.5628 18.19 24.5853 18.1359 24.5853 18.0794C24.5853 18.0229 24.5628 17.9687 24.5229 17.9288C24.4829 17.8888 24.4288 17.8664 24.3723 17.8664C24.3447 17.8668 24.3175 17.8726 24.2921 17.8835C24.2668 17.8944 24.2439 17.9102 24.2247 17.93C24.2054 17.9498 24.1903 17.9731 24.1801 17.9988C24.1699 18.0244 24.1649 18.0518 24.1653 18.0794C24.1653 18.1994 24.2583 18.2924 24.3783 18.2924H24.3723ZM14.8158 18.7034C15.0763 18.542 15.3831 18.472 15.6879 18.5043C15.9926 18.5367 16.2779 18.6695 16.4988 18.8819V18.8999L16.4928 18.9179L16.4778 18.9314C15.9308 19.2164 15.3768 19.1594 14.8158 18.7604L14.8008 18.7454V18.7319C14.8008 18.7269 14.8023 18.7219 14.8053 18.7169L14.8158 18.7034ZM21.5223 19.2659C21.5918 19.264 21.6593 19.2418 21.7164 19.2021C21.7735 19.1624 21.8178 19.1068 21.8437 19.0423C21.8697 18.9778 21.8763 18.9071 21.8626 18.8388C21.8489 18.7706 21.8156 18.7079 21.7668 18.6584C21.7 18.5926 21.6101 18.5554 21.5163 18.5549C21.422 18.5557 21.3319 18.5939 21.2658 18.6611C21.1997 18.7284 21.163 18.8191 21.1638 18.9134C21.1646 19.0077 21.2028 19.0978 21.27 19.1639C21.3373 19.23 21.428 19.2667 21.5223 19.2659ZM13.4868 18.7604C13.4828 18.9385 13.4287 19.1118 13.3305 19.2604C13.2323 19.4091 13.0941 19.5269 12.9318 19.6004C12.9238 19.6004 12.9168 19.5984 12.9108 19.5944C12.9038 19.591 12.8985 19.5851 12.8958 19.5779V19.5629C12.9108 19.1579 13.0958 18.8809 13.4508 18.7319C13.4808 18.7169 13.4943 18.7319 13.4868 18.7619M16.9323 20.0774C16.6623 19.7579 16.6563 19.4369 16.7898 19.0469L16.8048 19.0319C16.8091 19.0268 16.815 19.0233 16.8215 19.022C16.828 19.0206 16.8348 19.0215 16.8408 19.0244L16.8618 19.0319C17.1018 19.3389 17.1468 19.6849 16.9968 20.0699C16.9808 20.1049 16.9618 20.1074 16.9398 20.0774H16.9323ZM16.5918 19.1024C16.6413 19.7504 16.2783 20.2544 15.7383 20.5949H15.7173L15.6963 20.5889L15.6813 20.5739L15.6753 20.5529C15.6313 19.8839 15.9153 19.3889 16.5273 19.0679C16.5369 19.0626 16.5481 19.061 16.5588 19.0634C16.5694 19.0665 16.5785 19.0735 16.5843 19.0829L16.5918 19.1024ZM14.8578 19.8419C14.9567 19.6427 15.1155 19.4794 15.3118 19.3751C15.5082 19.2707 15.7323 19.2304 15.9528 19.2599C15.9618 19.2659 15.9678 19.2744 15.9708 19.2854C15.9728 19.2956 15.9712 19.3062 15.9663 19.3154C15.8624 19.5075 15.7032 19.6639 15.5092 19.7642C15.3152 19.8645 15.0956 19.9041 14.8788 19.8779C14.8503 19.8779 14.8443 19.8569 14.8578 19.8359V19.8419ZM19.5408 20.0339C19.6807 19.8357 19.8794 19.6866 20.1088 19.6077C20.3382 19.5288 20.5866 19.5241 20.8188 19.5944C20.8258 19.6014 20.8298 19.6089 20.8308 19.6169C20.8308 19.6259 20.8293 19.6349 20.8263 19.6439C20.5413 20.0339 20.1153 20.1839 19.5753 20.1059L19.5543 20.0954L19.5393 20.0774C19.5356 20.0707 19.5337 20.0632 19.5337 20.0556C19.5337 20.048 19.5356 20.0405 19.5393 20.0339M21.2223 20.0339C21.3423 20.2259 21.4998 20.3474 21.5643 20.3039C21.6348 20.2619 21.5853 20.0699 21.4638 19.8779C21.3438 19.6859 21.1938 19.5659 21.1233 19.6079C21.0588 19.6514 21.1023 19.8419 21.2223 20.0339ZM20.7828 21.0989C20.6644 20.882 20.6144 20.6343 20.6396 20.3885C20.6648 20.1427 20.7639 19.9103 20.9238 19.7219L20.9418 19.7174C20.9478 19.7174 20.9538 19.7189 20.9598 19.7219L20.9673 19.7369C21.2073 20.1974 21.1653 20.6594 20.8473 21.1079C20.8243 21.1349 20.8028 21.1349 20.7828 21.1079V21.0989ZM20.1288 20.3759C19.9638 20.5889 19.8948 20.8094 19.9728 20.8724C20.0433 20.9219 20.2353 20.8019 20.3988 20.5874C20.5548 20.3759 20.6253 20.1554 20.5548 20.0924C20.4843 20.0414 20.2923 20.1614 20.1288 20.3759ZM16.8588 21.0509C16.8921 21.0519 16.9253 21.0462 16.9564 21.0341C16.9875 21.0221 17.0158 21.0039 17.0397 20.9806C17.0636 20.9574 17.0827 20.9296 17.0956 20.8989C17.1086 20.8682 17.1153 20.8352 17.1153 20.8019C17.1161 20.7332 17.0898 20.6669 17.042 20.6175C16.9943 20.5681 16.929 20.5394 16.8603 20.5379C16.826 20.5379 16.7921 20.5447 16.7606 20.5581C16.729 20.5715 16.7005 20.5911 16.6767 20.6157C16.6529 20.6404 16.6343 20.6695 16.622 20.7015C16.6098 20.7335 16.6041 20.7676 16.6053 20.8019C16.6053 20.9444 16.7253 21.0569 16.8603 21.0569L16.8588 21.0509Z" fill="#FCC809"/>
</svg>
