<svg width="177" height="57" viewBox="0 0 177 57" fill="none" xmlns="http://www.w3.org/2000/svg">
<path d="M15.0694 49.8229C26.535 56.7713 35.794 53.3323 35.794 53.3323C60.9317 60.6245 77.6478 52.4788 77.6478 52.4788C124.757 60.6245 129.73 47.1298 129.73 47.1298C129.73 47.1298 162.607 52.2343 173.658 41.5363C184.71 30.8383 164.813 32.7815 164.813 32.7815C155.009 18.5575 134.703 26.5831 134.703 26.5831C130.28 20.9896 120.057 23.5419 120.057 23.5419C112.045 -12.0823 73.7805 5.91212 73.7805 5.91212C73.7805 5.91212 48.8781 -14.3943 30.1107 20.2604C30.1107 20.2604 13.2299 15.1517 2.75231 23.4217C-7.72055 31.6877 15.0694 49.8229 15.0694 49.8229Z" fill="white"/>
</svg>
