<svg width="170" height="54" viewBox="0 0 170 54" fill="none" xmlns="http://www.w3.org/2000/svg">
<path d="M16.2598 33.9293C9.65033 34.9319 5.28008 33.8175 2.53279 32.413C-0.238015 30.9962 -0.858977 27.6736 1.28616 25.5774C9.29751 17.764 23.8713 21.5008 23.8713 21.5008C48.6721 -15.4534 81.0092 6.43743 81.0092 6.43743C81.0092 6.43743 127.671 -13.5518 140.062 25.8839C140.062 25.8839 167.106 24.0652 170 35.3337C170 35.3337 170.207 49.146 128.085 44.7836C128.085 44.7836 93.8094 63.3891 66.1437 45.637C61.2936 46.8053 47.0256 49.6348 31.7838 43.6443C24.5064 40.7816 19.4258 36.8625 16.2598 33.9293Z" fill="white"/>
</svg>
